<svg width="102" height="86" viewBox="0 0 102 86" fill="none" xmlns="http://www.w3.org/2000/svg">
<ellipse cx="51.1004" cy="42.9327" rx="49.8407" ry="41.3978" transform="rotate(-0.967306 51.1004 42.9327)" fill="#AB0000"/>
<path d="M26.6543 41.2548C26.7071 41.6959 26.7476 42.7551 26.776 44.4322L28.0508 44.4106C28.9573 44.3953 29.6028 44.3618 29.9873 44.3099C30.0344 44.4111 30.0601 44.5921 30.0645 44.8527C30.0699 45.17 30.017 45.3919 29.9057 45.5185C29.7943 45.6337 29.6141 45.6991 29.365 45.7146C29.0819 45.7307 28.7024 45.7428 28.2264 45.7509L26.7986 45.775C26.8367 48.03 26.8992 49.3834 26.9862 49.8354C27.4625 49.85 27.8537 49.8547 28.1596 49.8496C29.9727 49.819 31.1434 49.6745 31.6718 49.4162C31.7668 49.6753 31.8172 49.9748 31.823 50.3148C31.8274 50.5754 31.7795 50.7576 31.6792 50.8613C31.4668 51.0349 30.4993 51.1363 28.7769 51.1653C27.2358 51.1914 26.2951 51.1959 25.9547 51.179C25.6033 51.1736 25.3641 51.1039 25.2371 50.9701C25.1213 50.8247 25.0604 50.5763 25.0545 50.225C25.0509 50.0097 25.0487 49.545 25.048 48.831C25.0472 48.1169 25.0436 47.5672 25.0371 47.1819L24.9815 43.8844C24.9547 42.2979 24.8536 41.0131 24.6783 40.0299C25.9118 39.9071 27.1744 39.8348 28.4662 39.813C30.1433 39.7846 31.0909 39.8537 31.3091 40.02C31.4128 40.1203 31.4669 40.3007 31.4713 40.5613C31.477 40.9013 31.4369 41.208 31.3508 41.4815C30.7235 41.2541 29.7357 41.1517 28.3872 41.1745C27.8433 41.1837 27.2656 41.2104 26.6543 41.2548ZM32.9613 43.0015C33.0631 42.9885 33.3179 42.9785 33.7259 42.9716C33.6919 42.3034 33.6483 41.7318 33.5949 41.2566C33.8321 41.2072 34.1093 41.1799 34.4266 41.1745C35.2085 41.1613 35.603 41.3644 35.6101 41.7836C35.6147 42.0556 35.6043 42.4468 35.5789 42.9573C36.8027 42.9367 37.652 42.8883 38.1268 42.8123C38.1969 42.9358 38.2339 43.1109 38.2377 43.3375C38.2429 43.6435 38.1784 43.8542 38.0443 43.9699C37.9101 44.0741 37.6957 44.1344 37.4013 44.1507C37.0615 44.1678 36.4497 44.1838 35.5659 44.1987C35.5612 45.2643 35.5693 46.4147 35.5901 47.6498C35.5962 48.0124 35.6126 48.3125 35.6393 48.5501C35.666 48.7877 35.721 49.0248 35.8044 49.2614C35.8877 49.4981 36.0097 49.6774 36.1705 49.7993C36.331 49.91 36.536 49.9632 36.7853 49.959C37.1366 49.953 37.4958 49.7486 37.8631 49.3457C38.1632 49.6693 38.3152 49.9445 38.3191 50.1711C38.3246 50.4997 38.1588 50.7462 37.8215 50.9106C37.4955 51.0748 37.1229 51.1604 36.7037 51.1675C34.8113 51.1995 33.8477 50.1843 33.8128 48.1219C33.8038 47.5893 33.7914 46.8527 33.7755 45.9122C33.7708 44.9601 33.7669 44.3935 33.7638 44.2122C33.0394 44.2697 32.5245 44.3238 32.2193 44.3743C32.1719 44.2504 32.1461 44.0638 32.1419 43.8145C32.1369 43.5199 32.1959 43.3205 32.3188 43.2164C32.4531 43.1121 32.6672 43.0405 32.9613 43.0015ZM44.4676 45.6977C44.4571 45.0744 44.3246 44.6119 44.0701 44.3102C43.8157 44.0084 43.4901 43.8609 43.0935 43.8676C42.4703 43.8781 41.8521 44.1889 41.239 44.8C41.2574 45.2191 41.2786 46.1369 41.3025 47.5534C41.3376 48.9583 41.396 50.0681 41.4777 50.8829C41.1725 50.9334 40.8896 50.9608 40.629 50.9652C39.8924 50.9777 39.5203 50.7572 39.5127 50.304C39.5115 50.236 39.5126 49.9639 39.5159 49.4878C39.5305 49.0115 39.5353 48.286 39.5302 47.3113C39.5248 46.3252 39.5114 45.1919 39.4898 43.9114C39.4446 41.2372 39.3626 39.4023 39.2438 38.4068C39.5601 38.3448 39.8543 38.3115 40.1262 38.3069C40.9308 38.2933 41.3383 38.5982 41.3488 39.2214C41.3496 39.2667 41.336 39.4653 41.3079 39.8172C41.2912 40.1688 41.2715 40.6849 41.249 41.3654C41.2263 42.0345 41.2218 42.7714 41.2353 43.5759C42.0071 42.9622 42.8802 42.647 43.8548 42.6306C44.546 42.6189 45.1104 42.8134 45.5478 43.2141C45.9853 43.6147 46.2117 44.2684 46.227 45.1749C46.2282 45.2429 46.2254 45.413 46.2187 45.6851C46.2233 45.9571 46.2237 46.3198 46.22 46.7732C46.2162 47.2154 46.2183 47.6801 46.2266 48.1673C46.2423 49.0965 46.4037 49.9326 46.711 50.6755C46.3622 50.8287 46.0461 50.9078 45.7628 50.9125C45.2982 50.9204 44.968 50.8296 44.7721 50.6402C44.5762 50.4508 44.4738 50.0899 44.4648 49.5573C44.4575 49.1267 44.4565 48.3956 44.4618 47.364C44.4668 46.3211 44.4688 45.7657 44.4676 45.6977ZM49.42 42.6556C50.2359 42.6419 50.6489 42.9353 50.6591 43.5358C50.6602 43.6038 50.6471 43.8364 50.6198 44.2336C50.5923 44.6195 50.5665 45.1016 50.5422 45.6801C50.5293 46.2584 50.5273 46.8082 50.5361 47.3295C50.5617 48.8479 50.7277 49.9503 51.034 50.6365C50.7528 50.766 50.4309 50.8337 50.0683 50.8399C49.5697 50.8483 49.228 50.752 49.0433 50.5511C48.8698 50.35 48.779 50.0058 48.7708 49.5186C48.7677 49.3373 48.766 48.9009 48.7657 48.2095C48.7652 47.5067 48.7617 46.9684 48.7554 46.5944C48.7277 44.9513 48.655 43.666 48.5373 42.7385C48.8085 42.6886 49.1027 42.661 49.42 42.6556ZM49.493 41.9403C49.153 41.946 48.8621 41.8376 48.6203 41.615C48.3785 41.3924 48.2547 41.1054 48.2488 40.7541C48.243 40.4142 48.3629 40.1288 48.6083 39.8979C48.8536 39.6558 49.1462 39.5318 49.4862 39.5261C49.8148 39.5205 50.1001 39.6347 50.3421 39.8687C50.5839 40.0913 50.7077 40.3726 50.7134 40.7125C50.7191 41.0525 50.5994 41.3435 50.3541 41.5857C50.1086 41.8166 49.8216 41.9347 49.493 41.9403ZM56.1874 43.6635C55.6321 43.6729 55.1661 43.9301 54.7892 44.4352C54.4124 44.9403 54.2304 45.5782 54.2435 46.3487C54.2603 47.3459 54.4663 48.1359 54.8615 48.7186C55.2568 49.3014 55.7433 49.5879 56.3213 49.5781C56.9558 49.5674 57.5011 49.3032 57.9571 48.7854C57.9499 47.686 57.9705 46.2235 58.0191 44.3977C57.5118 43.8962 56.9013 43.6515 56.1874 43.6635ZM55.9346 50.8428C54.9827 50.8589 54.1601 50.4761 53.4668 49.6943C52.7733 48.9012 52.4164 47.9041 52.3962 46.703C52.3742 45.3998 52.7308 44.368 53.4661 43.6075C54.2011 42.8356 55.1296 42.4402 56.2514 42.4213C57.6112 42.3983 58.8077 42.7692 59.8407 43.5338C59.7191 45.0548 59.683 47.2827 59.7325 50.2176C59.7741 52.6766 59.9128 54.1818 60.1488 54.7332C59.8446 54.8404 59.5282 54.8967 59.1996 54.9023C58.735 54.9101 58.422 54.8361 58.2607 54.6801C58.0994 54.5241 58.0163 54.3045 58.0115 54.0212C57.9834 52.3554 57.9727 51.0521 57.9795 50.1112C57.3981 50.5857 56.7164 50.8296 55.9346 50.8428ZM67.1215 49.6848C66.3845 50.3433 65.5287 50.6808 64.5542 50.6973C62.8884 50.7254 62.042 49.9349 62.0148 48.3258C62.0135 48.2465 62.0119 47.8158 62.01 47.0337C62.0193 46.2401 62.0209 45.6677 62.015 45.3164C61.9953 44.1492 61.8836 43.2386 61.6798 42.5846C61.9841 42.4775 62.2948 42.4212 62.6121 42.4159C63.0314 42.4088 63.3328 42.4717 63.5164 42.6046C63.7 42.7376 63.7945 42.9627 63.7999 43.28C63.8098 43.8692 63.8064 44.674 63.7896 45.6945C63.7729 46.7149 63.767 47.3724 63.7719 47.6671C63.7817 48.245 63.9081 48.6849 64.1513 48.9868C64.4057 49.2886 64.7256 49.4362 65.1109 49.4297C65.7681 49.4186 66.3921 49.119 66.983 48.531C66.9638 48.0666 66.946 47.3471 66.9295 46.3726C66.9008 44.6728 66.8389 43.3533 66.7437 42.4141C67.0602 42.3635 67.3431 42.336 67.5924 42.3318C68.3176 42.3196 68.684 42.5344 68.6914 42.9763C68.6949 43.1803 68.6931 43.7471 68.6861 44.6767C68.6792 45.6063 68.6808 46.377 68.6912 46.9889C68.7151 48.4054 68.8415 49.5141 69.0704 50.315C68.8345 50.4437 68.5523 50.5108 68.2237 50.5163C68.0084 50.5199 67.8381 50.5058 67.7129 50.4739C67.5878 50.4534 67.4676 50.3817 67.3522 50.259C67.2366 50.1249 67.1597 49.9335 67.1215 49.6848ZM73.6785 47.0237C73.3726 47.0289 72.9588 47.0245 72.4371 47.0107C72.564 47.8133 72.8289 48.3983 73.2319 48.7655C73.6461 49.1326 74.1479 49.3111 74.7371 49.3012C75.0431 49.296 75.359 49.2113 75.685 49.0471C76.0109 48.8829 76.2507 48.6522 76.4044 48.3549C76.9646 48.6401 77.2476 48.9527 77.2533 49.2927C77.2598 49.678 76.9985 49.9771 76.4694 50.1901C75.9402 50.403 75.347 50.5151 74.6898 50.5261C73.6246 50.5441 72.6668 50.2089 71.8164 49.5205C70.9773 48.8319 70.5466 47.8247 70.5242 46.4989C70.5007 45.1051 70.8793 44.0332 71.6601 43.2833C72.452 42.5218 73.3919 42.1319 74.4797 42.1135C75.3523 42.0988 76.0589 42.3249 76.5995 42.7918C77.1515 43.2586 77.433 43.8205 77.4441 44.4778C77.4531 45.0104 77.3586 45.454 77.1605 45.8088C76.9736 46.152 76.6889 46.4061 76.3063 46.5713C75.9237 46.7364 75.5345 46.8507 75.1389 46.9141C74.7432 46.9774 74.2564 47.014 73.6785 47.0237ZM74.3477 43.3569C73.8151 43.3659 73.3653 43.5775 72.9982 43.9918C72.6312 44.406 72.4211 45.0557 72.3681 45.9407C73.0933 45.9284 73.6256 45.9025 73.965 45.8627C75.0618 45.7082 75.6042 45.2683 75.5919 44.5431C75.5864 44.2144 75.4626 43.9332 75.2206 43.6992C74.99 43.4651 74.699 43.351 74.3477 43.3569Z" fill="white"/>
</svg>
