<svg width="103" height="86" viewBox="0 0 103 86" fill="none" xmlns="http://www.w3.org/2000/svg">
<ellipse cx="51.7327" cy="42.7137" rx="49.8407" ry="41.3978" transform="rotate(-1.10769 51.7327 42.7137)" fill="#AB0000"/>
<path d="M22.9337 41.1797C22.9875 41.6207 23.0307 42.6798 23.0631 44.3568L24.3379 44.3321C25.2444 44.3146 25.8898 44.2794 26.2742 44.2267C26.3215 44.3278 26.3477 44.5086 26.3527 44.7693C26.3588 45.0865 26.3065 45.3086 26.1955 45.4354C26.0844 45.5509 25.9043 45.6167 25.6553 45.6329C25.3722 45.6497 24.9927 45.6627 24.5168 45.6719L23.0891 45.6995C23.1327 47.9544 23.1985 49.3077 23.2866 49.7595C23.7629 49.7729 24.1541 49.7767 24.46 49.7708C26.273 49.7357 27.4434 49.5884 27.9711 49.3288C28.0668 49.5877 28.118 49.8871 28.1245 50.227C28.1296 50.4876 28.0821 50.6699 27.9821 50.7739C27.7701 50.948 26.8029 51.0517 25.0806 51.085C23.5395 51.1148 22.5988 51.1217 22.2584 51.1056C21.9069 51.1011 21.6676 51.032 21.5403 50.8984C21.4241 50.7533 21.3627 50.5051 21.3559 50.1539C21.3517 49.9386 21.3484 49.4739 21.3459 48.7598C21.3434 48.0457 21.3385 47.496 21.331 47.1108L21.2673 43.8134C21.2366 42.227 21.1324 40.9425 20.9547 39.9597C22.1878 39.8338 23.4503 39.7584 24.742 39.7335C26.4191 39.701 27.3669 39.7677 27.5854 39.9335C27.6894 40.0335 27.7439 40.2138 27.7489 40.4745C27.7555 40.8144 27.7161 41.1212 27.6307 41.3949C27.0029 41.169 26.0148 41.0691 24.6664 41.0952C24.1225 41.1057 23.5449 41.1339 22.9337 41.1797ZM33.8133 50.5421C33.4188 50.0736 32.8356 49.2234 32.0636 47.9915C31.1281 49.4378 30.6098 50.4794 30.5088 51.1161C29.455 51.1365 28.9237 50.92 28.9149 50.4668C28.9086 50.1382 29.1927 49.5886 29.7672 48.818C30.3417 48.0474 30.9181 47.3732 31.4964 46.7952C30.1912 44.9501 29.2861 43.868 28.7812 43.5491C29.2919 42.9951 29.7172 42.7148 30.0571 42.7083C30.4651 42.7004 30.7911 42.8528 31.0352 43.1654C31.3139 43.5114 31.7985 44.2445 32.4889 45.3647C33.1787 44.1045 33.5578 43.1903 33.6261 42.6222C34.703 42.6241 35.2457 42.8403 35.254 43.2709C35.2592 43.5428 35.0305 44.0234 34.5677 44.7124C34.1161 45.39 33.6237 46.0116 33.0905 46.5773C33.6857 47.4613 34.2623 48.2607 34.8202 48.9754C35.3892 49.6785 35.8116 50.1237 36.0872 50.3111C35.643 50.7845 35.1886 51.0256 34.724 51.0346C34.3954 51.041 34.0918 50.8768 33.8133 50.5421ZM38.1339 42.6711C38.9497 42.6553 39.3634 42.9477 39.375 43.5483C39.3764 43.6163 39.3639 43.8489 39.3375 44.2461C39.311 44.6321 39.2863 45.1143 39.2635 45.6928C39.252 46.2712 39.2513 46.821 39.2614 47.3422C39.2907 48.8606 39.4594 49.9625 39.7674 50.648C39.4865 50.7781 39.1648 50.8467 38.8022 50.8537C38.3036 50.8634 37.9617 50.768 37.7764 50.5675C37.6025 50.3668 37.5109 50.0229 37.5014 49.5356C37.4979 49.3543 37.4952 48.918 37.4931 48.2265C37.4909 47.5238 37.4861 46.9854 37.4789 46.6115C37.4471 44.9685 37.3713 43.6834 37.2513 42.7562C37.5224 42.7056 37.8166 42.6772 38.1339 42.6711ZM38.205 41.9556C37.8651 41.9622 37.574 41.8545 37.3316 41.6324C37.0893 41.4104 36.9647 41.1238 36.9579 40.7725C36.9514 40.4326 37.0705 40.1469 37.3154 39.9154C37.5601 39.6726 37.8524 39.548 38.1924 39.5414C38.521 39.535 38.8066 39.6485 39.0491 39.8819C39.2914 40.1039 39.4159 40.3849 39.4225 40.7248C39.429 41.0648 39.31 41.3561 39.0653 41.5989C38.8204 41.8304 38.5336 41.9492 38.205 41.9556ZM44.8307 48.6798C44.5361 48.6855 44.2352 48.663 43.9282 48.6122C43.5508 49.0276 43.3649 49.3769 43.3703 49.6602C43.3747 49.8868 43.7169 49.9936 44.3967 49.9804L46.3344 49.9429C48.068 49.9094 48.9474 50.5385 48.9723 51.8303C48.9897 52.7255 48.5674 53.4591 47.7057 54.0312C46.8439 54.6033 45.7955 54.9013 44.5603 54.9252C43.4272 54.9471 42.5679 54.7653 41.9823 54.3799C41.4083 54.0056 41.1158 53.5352 41.1049 52.9686C41.0924 52.3227 41.4887 51.7143 42.2938 51.1433C41.8813 50.9132 41.672 50.6395 41.6658 50.3223C41.6617 50.107 41.7636 49.8103 41.9717 49.4322C42.1797 49.0541 42.462 48.7029 42.8185 48.3786C42.2815 48.1623 41.8667 47.8132 41.574 47.3315C41.2813 46.8497 41.1286 46.2802 41.1159 45.623C41.0986 44.7279 41.4127 43.9736 42.0583 43.3604C42.7039 42.7471 43.531 42.4307 44.5394 42.4112C45.4233 42.3941 46.1637 42.5839 46.7608 42.9804C47.2251 42.3706 47.7462 42.0602 48.3241 42.049C48.9813 42.0363 49.3156 42.3246 49.327 42.9138C49.3303 43.0837 49.3001 43.277 49.2362 43.4936C48.9859 43.4418 48.7757 43.4175 48.6057 43.4208C48.2544 43.4276 47.8934 43.5139 47.5225 43.6798C47.8732 44.2285 48.0549 44.8314 48.0676 45.4886C48.086 46.4404 47.7777 47.2059 47.1428 47.7849C46.5079 48.364 45.7372 48.6622 44.8307 48.6798ZM46.2176 45.6604C46.2064 45.0825 46.0498 44.6038 45.7477 44.2242C45.4454 43.8333 45.045 43.6427 44.5464 43.6523C43.4586 43.6734 42.9261 44.2731 42.9489 45.4516C42.9601 46.0294 43.111 46.5083 43.4018 46.8881C43.7036 47.2563 44.1095 47.4355 44.6194 47.4256C45.2086 47.4142 45.6251 47.2645 45.8689 46.9764C46.1127 46.6883 46.2289 46.2496 46.2176 45.6604ZM46.2597 51.3557L44.594 51.3879C44.0048 51.3993 43.5737 51.3849 43.3009 51.3448C42.9479 51.8504 42.7749 52.2789 42.7817 52.6301C42.793 53.2193 43.4163 53.502 44.6514 53.4781C45.5692 53.4604 46.2636 53.3166 46.7344 53.0468C47.2053 52.777 47.4371 52.4551 47.4299 52.0812C47.4244 51.7979 47.3243 51.6015 47.1295 51.4919C46.9349 51.3936 46.6449 51.3482 46.2597 51.3557ZM53.4896 47.1521C53.1837 47.158 52.7699 47.1547 52.2482 47.1421C52.3771 47.9444 52.6434 48.5287 53.0472 48.895C53.4624 49.261 53.9646 49.4383 54.5538 49.427C54.8597 49.421 55.1755 49.3356 55.501 49.1706C55.8266 49.0056 56.0658 48.7743 56.2187 48.4766C56.7797 48.7605 57.0634 49.0724 57.07 49.4123C57.0774 49.7976 56.8168 50.0973 56.2882 50.3116C55.7596 50.5258 55.1667 50.6393 54.5095 50.652C53.4443 50.6726 52.4857 50.3398 51.6336 49.6534C50.7929 48.9669 50.3597 47.9608 50.334 46.635C50.3071 45.2413 50.6831 44.1685 51.462 43.4166C52.2521 42.6532 53.191 42.261 54.2788 42.2399C55.1513 42.2231 55.8584 42.4474 56.4002 42.913C56.9533 43.3784 57.2362 43.9397 57.2489 44.5969C57.2592 45.1295 57.1658 45.5734 56.9686 45.9286C56.7826 46.2723 56.4984 46.5271 56.1162 46.6932C55.734 46.8593 55.3452 46.9745 54.9497 47.0389C54.5542 47.1032 54.0675 47.1409 53.4896 47.1521ZM54.1498 43.4836C53.6173 43.4939 53.168 43.7067 52.8019 44.1218C52.4359 44.537 52.2274 45.1871 52.1765 46.0723C52.9017 46.0583 53.4339 46.031 53.7732 45.9904C54.8697 45.8332 55.411 45.392 55.3969 44.6668C55.3906 44.3382 55.2661 44.0572 55.0236 43.8238C54.7923 43.5902 54.5011 43.4769 54.1498 43.4836ZM60.728 43.0674C61.5202 42.4173 62.4206 42.0825 63.4291 42.063C64.1203 42.0496 64.6851 42.2428 65.1236 42.6424C65.5621 43.0419 65.7901 43.695 65.8076 44.6015C65.81 44.7261 65.8072 45.1683 65.7992 45.9279C65.8026 46.6873 65.8076 47.2427 65.8144 47.5939C65.8324 48.5231 65.9959 49.3587 66.305 50.1009C65.9566 50.255 65.6407 50.3348 65.3574 50.3403C64.8929 50.3493 64.5624 50.2593 64.366 50.0704C64.1697 49.8815 64.0664 49.5207 64.0561 48.9882C64.0447 48.399 64.0423 47.6905 64.049 46.8629C64.0554 46.024 64.0556 45.4459 64.0495 45.1286C64.0374 44.5054 63.9038 44.0432 63.6486 43.7421C63.3934 43.4409 63.0675 43.2942 62.6709 43.3019C62.0703 43.3135 61.4528 43.6202 60.8183 44.2219C60.8703 45.7398 60.903 46.8444 60.9164 47.5356C60.9374 48.6234 60.9894 49.5519 61.0723 50.3211C60.7672 50.3723 60.4844 50.4005 60.2237 50.4055C59.4872 50.4198 59.1146 50.2003 59.1058 49.747C59.0995 49.4184 59.1005 48.8856 59.1089 48.1487C59.1287 47.4115 59.1328 46.7483 59.1215 46.159C59.0851 44.2781 58.9536 43.045 58.7269 42.46C58.9964 42.3301 59.2898 42.2621 59.6071 42.2559C59.9357 42.2496 60.1916 42.2956 60.3749 42.3941C60.5582 42.4926 60.6759 42.717 60.728 43.0674ZM71.8494 49.0925C72.1553 49.0866 72.4711 49.0012 72.7966 48.8362C73.1222 48.6712 73.3614 48.4399 73.5143 48.1422C74.0753 48.426 74.359 48.738 74.3656 49.0779C74.373 49.4632 74.1124 49.7629 73.5838 49.9772C73.0552 50.1914 72.4623 50.3049 71.8051 50.3176C71.3178 50.327 70.8347 50.257 70.3557 50.1076C69.8879 49.9466 69.4469 49.7114 69.0329 49.402C68.6188 49.0927 68.2819 48.6684 68.0221 48.1293C67.7736 47.59 67.6426 46.9691 67.629 46.2666C67.6018 44.8615 67.9891 43.7885 68.791 43.0475C69.5928 42.3066 70.5149 41.926 71.5574 41.9058C72.192 41.8936 72.7955 42.0349 73.3679 42.3299C73.9515 42.6134 74.2485 43.0214 74.2588 43.5539C74.2634 43.7919 74.1481 43.9868 73.913 44.1387C73.6779 44.2906 73.3568 44.3932 72.9498 44.4464C72.8512 44.0402 72.6412 43.7269 72.3195 43.5064C71.9978 43.2859 71.6727 43.1788 71.3441 43.1852C70.8002 43.1957 70.352 43.4651 69.9995 43.9933C69.647 44.5216 69.4788 45.205 69.495 46.0435C69.5158 47.1199 69.7407 47.9034 70.1696 48.3939C70.6096 48.8728 71.1695 49.1057 71.8494 49.0925ZM78.6695 46.6652C78.3635 46.6712 77.9497 46.6678 77.4281 46.6552C77.5569 47.4576 77.8233 48.0419 78.2271 48.4081C78.6423 48.7742 79.1444 48.9515 79.7337 48.9401C80.0396 48.9342 80.3553 48.8487 80.6809 48.6837C81.0064 48.5187 81.2457 48.2874 81.3986 47.9897C81.9595 48.2736 82.2433 48.5855 82.2499 48.9254C82.2573 49.3107 81.9967 49.6105 81.4681 49.8247C80.9395 50.039 80.3466 50.1525 79.6893 50.1652C78.6242 50.1858 77.6656 49.8529 76.8135 49.1666C75.9727 48.48 75.5395 47.4739 75.5139 46.1481C75.487 44.7544 75.863 43.6816 76.6419 42.9297C77.432 42.1663 78.3709 41.7741 79.4587 41.7531C80.3312 41.7362 81.0383 41.9606 81.5801 42.4262C82.1332 42.8916 82.4161 43.4529 82.4288 44.1101C82.4391 44.6427 82.3457 45.0865 82.1485 45.4418C81.9624 45.7854 81.6783 46.0403 81.2961 46.2064C80.9139 46.3725 80.5251 46.4877 80.1296 46.552C79.7341 46.6163 79.2474 46.6541 78.6695 46.6652ZM79.3297 42.9968C78.7971 43.0071 78.3478 43.2198 77.9818 43.635C77.6157 44.0501 77.4073 44.7003 77.3564 45.5854C78.0816 45.5714 78.6138 45.5441 78.9531 45.5035C80.0496 45.3463 80.5908 44.9051 80.5768 44.1799C80.5704 43.8513 80.446 43.5703 80.2034 43.337C79.9722 43.1034 79.681 42.99 79.3297 42.9968Z" fill="white"/>
</svg>
