<svg width="104" height="88" viewBox="0 0 104 88" fill="none" xmlns="http://www.w3.org/2000/svg">
<ellipse cx="52.1409" cy="43.9872" rx="49.8407" ry="41.3978" transform="rotate(2.04202 52.1409 43.9872)" fill="#AB0000"/>
<path d="M7.32085 46.2852L7.442 42.8873C7.46461 42.2531 7.48357 41.4032 7.49888 40.3377C5.89057 40.2804 4.83077 40.2653 4.31948 40.2924C4.29035 40.1553 4.28063 39.9508 4.29032 39.679C4.30122 39.3732 4.36512 39.1713 4.48202 39.0734C4.61064 38.9646 4.80541 38.9092 5.06631 38.9071C5.34987 38.9059 6.01265 38.9239 7.05466 38.961L9.05938 39.0325C10.9622 39.1003 12.1124 39.1243 12.51 39.1045C12.5391 39.2416 12.5491 39.4404 12.5398 39.7009C12.5289 40.0067 12.4591 40.2141 12.3305 40.3229C12.2136 40.4208 12.0247 40.4707 11.7638 40.4728C11.4462 40.4728 10.6589 40.4504 9.40167 40.4056C9.30143 41.6268 9.23737 42.6281 9.20951 43.4096L9.08775 46.8245C9.03404 48.3308 9.10207 49.4446 9.29182 50.1659C8.97065 50.2678 8.61752 50.3119 8.23243 50.2982C7.81337 50.2833 7.52717 50.1993 7.37386 50.0464C7.23187 49.8939 7.16713 49.6421 7.17965 49.291C7.18611 49.1098 7.20773 48.6626 7.2445 47.9495C7.28126 47.2364 7.30671 46.6816 7.32085 46.2852ZM14.2042 42.3289C14.6119 42.3435 14.8981 42.4274 15.0627 42.5807C15.2387 42.7344 15.321 42.9698 15.3097 43.2869L15.3025 43.4908C15.9889 42.6874 16.6435 42.2968 17.2665 42.319C17.9234 42.3425 18.2434 42.592 18.2264 43.0677C18.2151 43.3848 17.9965 43.791 17.5706 44.2861C17.34 44.0738 17.0775 43.9623 16.783 43.9518C16.2053 43.9312 15.6732 44.2241 15.1867 44.8305C15.1268 45.5542 15.0836 46.2898 15.0569 47.0373C15.004 48.521 15.1178 49.6251 15.3981 50.3496C15.0871 50.4859 14.7503 50.5476 14.3879 50.5347C13.9009 50.5173 13.5762 50.398 13.414 50.1767C13.2518 49.9555 13.1792 49.607 13.1961 49.1313C13.201 48.9954 13.2204 48.6105 13.2543 47.9767C13.2883 47.3428 13.3117 46.8447 13.3246 46.4822C13.3921 44.5908 13.3898 43.2241 13.3177 42.3824C13.6482 42.3374 13.9437 42.3196 14.2042 42.3289ZM23.488 48.3586C23.5066 47.8376 23.5322 47.4359 23.565 47.1535C23.2236 47.1867 22.9732 47.2118 22.8138 47.2288C22.6658 47.2462 22.4607 47.2729 22.1986 47.3089C21.9364 47.345 21.7421 47.3891 21.6155 47.4412C21.5002 47.4938 21.3732 47.5574 21.2345 47.6318C21.0957 47.7062 20.9958 47.8047 20.9347 47.9273C20.8741 48.0385 20.8409 48.1734 20.8352 48.332C20.8191 48.7851 20.9204 49.1232 21.1393 49.3465C21.3581 49.5698 21.6431 49.6877 21.9942 49.7002C22.5719 49.7208 23.0722 49.5231 23.4953 49.1073C23.4779 48.9592 23.4755 48.7097 23.488 48.3586ZM23.6359 46.1184C23.6496 45.7333 23.6488 45.4384 23.6334 45.2338C23.6294 45.0295 23.5923 44.7957 23.5223 44.5323C23.4637 44.2694 23.3458 44.0781 23.1686 43.9584C23.0031 43.8277 22.7732 43.7572 22.4787 43.7467C22.1049 43.7333 21.7437 43.8452 21.395 44.0823C21.0581 44.3084 20.8083 44.634 20.6457 45.0592C19.6381 45.0119 19.1448 44.6938 19.1658 44.1048C19.1832 43.6178 19.5375 43.2222 20.2288 42.918C20.9314 42.6141 21.7187 42.4778 22.5909 42.5089C23.6329 42.546 24.384 42.7883 24.8444 43.2356C25.3161 43.6834 25.5321 44.4623 25.4925 45.5722C25.4913 45.6062 25.4762 45.8722 25.4471 46.3701C25.418 46.868 25.395 47.3549 25.378 47.8306C25.332 49.1217 25.405 50.094 25.5972 50.7472C25.2643 50.8601 24.9393 50.9109 24.6222 50.8996C23.9879 50.877 23.6178 50.6029 23.5118 50.0775C22.8112 50.6422 22.0362 50.9094 21.1867 50.8792C20.5298 50.8557 19.9877 50.6323 19.5606 50.2088C19.1447 49.7857 18.9509 49.1777 18.9792 48.3849C19.0018 47.7506 19.1545 47.2855 19.4372 46.9893C19.7199 46.6932 20.0904 46.4796 20.5487 46.3485C21.236 46.1576 22.265 46.0809 23.6359 46.1184ZM29.4807 43.7071C30.3075 43.1015 31.2249 42.8167 32.2329 42.8527C32.9238 42.8773 33.4772 43.1012 33.893 43.5242C34.3089 43.9473 34.5006 44.6119 34.4683 45.518C34.4639 45.6426 34.4368 46.0839 34.3871 46.842C34.3487 47.6004 34.3233 48.1552 34.3108 48.5063C34.2776 49.435 34.395 50.2784 34.6628 51.0364C34.3065 51.1712 33.9867 51.2335 33.7036 51.2234C33.2392 51.2068 32.9142 51.0988 32.7285 50.8994C32.5428 50.7 32.4595 50.3342 32.4784 49.8018C32.4994 49.2129 32.536 48.5054 32.5881 47.6794C32.6407 46.8421 32.6726 46.2648 32.6839 45.9477C32.7061 45.3248 32.5981 44.8559 32.3598 44.5413C32.1215 44.2266 31.8042 44.0622 31.4078 44.048C30.8075 44.0266 30.1741 44.2989 29.5075 44.8648C29.476 46.3833 29.448 47.488 29.4233 48.1789C29.3846 49.2662 29.3854 50.1962 29.4259 50.9688C29.1185 51.0032 28.8345 51.0158 28.574 51.0065C27.8378 50.9802 27.4778 50.7406 27.494 50.2875C27.5057 49.9591 27.536 49.4271 27.5849 48.6917C27.6451 47.9568 27.6857 47.2948 27.7067 46.7058C27.7738 44.8257 27.7102 43.5873 27.516 42.9907C27.7922 42.8758 28.0889 42.824 28.4061 42.8353C28.7345 42.847 28.9876 42.9071 29.1651 43.0155C29.3427 43.1238 29.4479 43.3544 29.4807 43.7071ZM41.0349 45.6161C40.8346 44.8718 40.2191 44.4813 39.1884 44.4445C38.894 44.434 38.6361 44.5099 38.4148 44.6721C38.194 44.823 38.0785 45.04 38.0684 45.3232C38.0563 45.6629 38.1941 45.9344 38.4817 46.1374C38.7806 46.3409 39.1437 46.4956 39.5708 46.6015C39.998 46.7075 40.4245 46.8304 40.8505 46.9703C41.2764 47.1103 41.6306 47.3554 41.913 47.7057C42.2067 48.0564 42.3434 48.5149 42.3232 49.0812C42.2937 49.908 41.9427 50.5305 41.27 50.9488C40.6091 51.3562 39.8369 51.5441 38.9534 51.5126C38.1719 51.4848 37.4857 51.3299 36.8947 51.048C36.3037 50.7661 36.0151 50.4326 36.0288 50.0475C36.0461 49.5605 36.4112 49.1822 37.1239 48.9128C37.4354 49.7177 38.1575 50.1404 39.2901 50.1808C40.1509 50.2115 40.5916 49.938 40.6122 49.3604C40.6243 49.0206 40.4805 48.7603 40.1807 48.5795C39.8927 48.3878 39.5349 48.2446 39.1074 48.15C38.6802 48.044 38.2538 47.9154 37.8283 47.7642C37.4027 47.6129 37.0435 47.3506 36.7506 46.9773C36.4691 46.6043 36.3392 46.112 36.361 45.5004C36.3901 44.685 36.7349 44.0792 37.3954 43.6831C38.0677 43.2762 38.8455 43.0884 39.729 43.1199C40.0688 43.132 40.4185 43.1842 40.7781 43.2764C41.1494 43.3577 41.5007 43.5233 41.832 43.7733C42.1751 44.0123 42.3403 44.3074 42.3278 44.6585C42.3197 44.885 42.1992 45.0849 41.9662 45.258C41.7336 45.4198 41.4232 45.5392 41.0349 45.6161ZM47.8485 44.6512C47.2142 44.6286 46.588 44.8558 45.97 45.3327C45.8933 48.1198 45.8487 49.6888 45.8362 50.0399C46.267 50.3615 46.8165 50.5342 47.4848 50.558C47.9152 50.5734 48.2835 50.4221 48.5896 50.1041C48.8958 49.7861 49.1136 49.4027 49.243 48.9536C49.3842 48.4937 49.4645 47.9919 49.4838 47.4483C49.5174 46.5082 49.3778 45.8115 49.0651 45.358C48.7637 44.905 48.3581 44.6694 47.8485 44.6512ZM45.9542 44.3455C46.8048 43.7068 47.6605 43.4027 48.5213 43.4334C49.3934 43.4645 50.0904 43.7956 50.6122 44.4266C51.1454 45.058 51.3894 46.0079 51.3441 47.2765C51.2977 48.579 50.9412 49.6719 50.2746 50.5554C49.6081 51.4389 48.6802 51.8594 47.4909 51.817C46.8906 51.7956 46.313 51.6163 45.758 51.2789C45.6764 53.5668 45.7372 55.0433 45.9403 55.7083C45.5964 55.8094 45.2716 55.8545 44.9658 55.8436C44.5128 55.8275 44.2098 55.7373 44.0569 55.5731C43.9036 55.4202 43.8334 55.1625 43.8463 54.8001C43.8766 53.9506 43.9293 52.6313 44.0044 50.8422C44.0909 49.0535 44.1446 47.8646 44.1656 47.2757C44.2314 45.4295 44.1677 44.1968 43.9743 43.5775C44.2619 43.463 44.5812 43.412 44.9323 43.4245C45.5892 43.448 45.9299 43.755 45.9542 44.3455ZM57.0682 49.5559C57.0868 49.0349 57.1124 48.6332 57.1452 48.3508C56.8038 48.384 56.5534 48.4091 56.394 48.4261C56.246 48.4435 56.0409 48.4702 55.7788 48.5062C55.5167 48.5423 55.3223 48.5864 55.1957 48.6386C55.0804 48.6911 54.9534 48.7547 54.8147 48.8291C54.6759 48.9035 54.576 49.002 54.515 49.1246C54.4543 49.2359 54.4211 49.3708 54.4155 49.5293C54.3993 49.9824 54.5007 50.3205 54.7195 50.5438C54.9384 50.7671 55.2233 50.885 55.5745 50.8975C56.1521 50.9181 56.6524 50.7205 57.0755 50.3046C57.0581 50.1566 57.0557 49.907 57.0682 49.5559ZM57.2161 47.3157C57.2299 46.9306 57.229 46.6357 57.2136 46.4311C57.2096 46.2268 57.1726 45.993 57.1026 45.7297C57.0439 45.4667 56.926 45.2754 56.7488 45.1557C56.5833 45.025 56.3534 44.9545 56.0589 44.944C55.6851 44.9306 55.3239 45.0425 54.9753 45.2796C54.6383 45.5057 54.3886 45.8313 54.226 46.2565C53.2183 46.2092 52.725 45.8911 52.746 45.3022C52.7634 44.8151 53.1177 44.4195 53.809 44.1153C54.5116 43.8114 55.299 43.6751 56.1711 43.7062C57.2131 43.7433 57.9643 43.9856 58.4246 44.4329C58.8963 44.8807 59.1123 45.6596 59.0728 46.7695C59.0716 46.8035 59.0564 47.0695 59.0273 47.5674C58.9982 48.0654 58.9752 48.5522 58.9582 49.0279C58.9122 50.3191 58.9853 51.2913 59.1774 51.9445C58.8445 52.0574 58.5195 52.1082 58.2024 52.0969C57.5681 52.0743 57.198 51.8002 57.092 51.2748C56.3914 51.8395 55.6164 52.1067 54.7669 52.0765C54.11 52.053 53.568 51.8296 53.1408 51.4061C52.7249 50.983 52.5311 50.375 52.5594 49.5822C52.582 48.948 52.7347 48.4828 53.0174 48.1867C53.3002 47.8905 53.6707 47.6769 54.129 47.5459C54.8162 47.3549 55.8453 47.2782 57.2161 47.3157ZM61.9863 44.0326C62.394 44.0471 62.6802 44.1311 62.8449 44.2844C63.0208 44.4381 63.1032 44.6735 63.0919 44.9906L63.0846 45.1945C63.771 44.3911 64.4257 44.0005 65.0486 44.0227C65.7055 44.0461 66.0255 44.2957 66.0085 44.7714C65.9972 45.0885 65.7786 45.4947 65.3527 45.9898C65.1221 45.7774 64.8596 45.666 64.5651 45.6555C63.9875 45.6349 63.4554 45.9278 62.9688 46.5342C62.909 47.2579 62.8657 47.9934 62.8391 48.741C62.7862 50.2247 62.8999 51.3288 63.1803 52.0532C62.8692 52.1896 62.5325 52.2513 62.17 52.2384C61.683 52.221 61.3584 52.1017 61.1962 51.8804C61.0339 51.6592 60.9613 51.3107 60.9783 50.835C60.9831 50.6991 61.0025 50.3142 61.0365 49.6803C61.0704 49.0465 61.0938 48.5483 61.1068 48.1859C61.1742 46.2944 61.1719 44.9278 61.0998 44.086C61.4303 44.0411 61.7258 44.0233 61.9863 44.0326ZM69.9437 49.0964C69.6379 49.0855 69.2249 49.0594 68.7047 49.0182C68.7893 49.8264 69.0231 50.4244 69.4062 50.8123C69.8006 51.2006 70.2923 51.4052 70.8813 51.4262C71.1871 51.4371 71.507 51.3692 71.8412 51.2223C72.1753 51.0755 72.4269 50.8576 72.5959 50.5688C73.1404 50.8831 73.4066 51.2101 73.3945 51.5499C73.3807 51.935 73.1041 52.22 72.5645 52.4048C72.0249 52.5897 71.4266 52.6705 70.7697 52.647C69.705 52.6091 68.7662 52.2241 67.9531 51.4919C67.1513 50.7602 66.774 49.7318 66.8213 48.4067C66.871 47.0135 67.3053 45.963 68.1244 45.2551C68.9552 44.5362 69.9143 44.1962 71.0016 44.235C71.8737 44.2661 72.5674 44.5289 73.0828 45.0236C73.6095 45.5187 73.8611 46.0947 73.8377 46.7516C73.8187 47.2839 73.7011 47.722 73.4847 48.0659C73.28 48.3988 72.9823 48.6377 72.5916 48.7825C72.2008 48.9273 71.8062 49.021 71.4078 49.0635C71.0094 49.106 70.5213 49.117 69.9437 49.0964ZM70.8045 45.4697C70.2721 45.4507 69.8118 45.6385 69.4235 46.0329C69.0352 46.4273 68.7914 47.065 68.6919 47.946C69.4168 47.9719 69.9497 47.9739 70.2907 47.952C71.3942 47.8553 71.9588 47.4444 71.9847 46.7196C71.9964 46.3911 71.8876 46.1037 71.6582 45.8574C71.4402 45.6115 71.1556 45.4822 70.8045 45.4697ZM77.3956 45.4155C78.2223 44.81 79.1397 44.5251 80.1478 44.5611C80.8387 44.5857 81.392 44.8096 81.8079 45.2327C82.2237 45.6557 82.4155 46.3203 82.3832 47.2264C82.3788 47.351 82.3517 47.7923 82.302 48.5504C82.2636 49.3088 82.2381 49.8636 82.2256 50.2147C82.1925 51.1434 82.3099 51.9868 82.5777 52.7449C82.2213 52.8796 81.9016 52.9419 81.6184 52.9318C81.1541 52.9152 80.829 52.8073 80.6433 52.6078C80.4577 52.4084 80.3743 52.0426 80.3933 51.5102C80.4143 50.9213 80.4509 50.2138 80.503 49.3878C80.5555 48.5505 80.5875 47.9732 80.5988 47.6561C80.621 47.0332 80.5129 46.5644 80.2747 46.2497C80.0364 45.935 79.7191 45.7706 79.3226 45.7564C78.7224 45.735 78.0889 46.0073 77.4223 46.5732C77.3909 48.0917 77.3628 49.1964 77.3382 49.8873C77.2994 50.9747 77.3003 51.9046 77.3408 52.6772C77.0334 52.7116 76.7494 52.7242 76.4889 52.7149C75.7527 52.6886 75.3927 52.449 75.4088 51.9959C75.4205 51.6675 75.4508 51.1356 75.4997 50.4002C75.56 49.6652 75.6006 49.0032 75.6216 48.4142C75.6886 46.5341 75.625 45.2957 75.4308 44.6991C75.7071 44.5842 76.0038 44.5324 76.3209 44.5437C76.6494 44.5554 76.9024 44.6155 77.08 44.7239C77.2576 44.8323 77.3628 45.0628 77.3956 45.4155ZM88.1691 52.0426C88.4749 52.0535 88.7949 51.9856 89.129 51.8387C89.4631 51.6919 89.7147 51.474 89.8838 51.1852C90.4282 51.4995 90.6944 51.8265 90.6823 52.1663C90.6686 52.5514 90.3919 52.8364 89.8523 53.0212C89.3127 53.2061 88.7145 53.2869 88.0575 53.2634C87.5705 53.2461 87.092 53.1496 86.6219 52.9741C86.1636 52.7877 85.7363 52.5286 85.3398 52.1969C84.9434 51.8653 84.6303 51.4232 84.4005 50.8706C84.182 50.3185 84.0853 49.6913 84.1103 48.9891C84.1604 47.5846 84.6061 46.5345 85.4475 45.8387C86.2888 45.1429 87.2304 44.8136 88.2724 44.8508C88.9067 44.8734 89.5015 45.0477 90.057 45.3737C90.6241 45.6888 90.8982 46.1125 90.8792 46.6448C90.8707 46.8826 90.7449 47.0709 90.5018 47.2097C90.2587 47.3485 89.9325 47.4332 89.5231 47.464C89.4471 47.053 89.2545 46.7286 88.9454 46.4908C88.6364 46.253 88.3176 46.1282 87.9892 46.1165C87.4455 46.0971 86.9832 46.3414 86.6022 46.8495C86.2212 47.3576 86.0157 48.0307 85.9858 48.8688C85.9475 49.9448 86.1289 50.7395 86.5302 51.2527C86.9433 51.7551 87.4896 52.0184 88.1691 52.0426ZM95.1123 49.9937C94.8065 49.9828 94.3935 49.9568 93.8733 49.9155C93.9579 50.7237 94.1917 51.3218 94.5748 51.7097C94.9692 52.098 95.4609 52.3026 96.0499 52.3236C96.3557 52.3345 96.6756 52.2666 97.0097 52.1197C97.3438 51.9729 97.5954 51.755 97.7645 51.4662C98.309 51.7805 98.5752 52.1075 98.563 52.4473C98.5493 52.8324 98.2727 53.1173 97.7331 53.3022C97.1935 53.4871 96.5952 53.5679 95.9383 53.5444C94.8736 53.5065 93.9347 53.1214 93.1217 52.3893C92.3199 51.6576 91.9426 50.6292 91.9899 49.304C92.0395 47.9109 92.4739 46.8604 93.293 46.1525C94.1238 45.4336 95.0829 45.0936 96.1702 45.1324C97.0423 45.1634 97.736 45.4263 98.2514 45.921C98.7781 46.4161 99.0297 46.9921 99.0063 47.649C98.9873 48.1813 98.8696 48.6194 98.6532 48.9633C98.4486 49.2962 98.1509 49.5351 97.7601 49.6799C97.3694 49.8247 96.9748 49.9184 96.5764 49.9609C96.1779 50.0034 95.6899 50.0143 95.1123 49.9937ZM95.9731 46.3671C95.4407 46.3481 94.9804 46.5358 94.5921 46.9303C94.2038 47.3247 93.9599 47.9624 93.8605 48.8434C94.5853 48.8693 95.1183 48.8712 95.4593 48.8494C96.5628 48.7526 97.1274 48.3418 97.1533 47.617C97.165 47.2885 97.0561 47.0011 96.8268 46.7548C96.6087 46.5089 96.3242 46.3796 95.9731 46.3671Z" fill="white"/>
</svg>
